# xmcd CD database file
#
# Track frame offsets:
#	182
#	20280
#	33417
#	53752
#	70295
#	88035
#	107140
#	120725
#	130380
#	153945
#
# Disc length: 2194 seconds
#
# Revision: 4
# Processed by: cddbd v1.5.2PL0 Copyright (c) Steve Scherf et al.
# Submitted via: CDex 1.51
#
DISCID=8008900a
DTITLE=Crosby, Stills, Nash and Young - Deja Vu
DYEAR=1970
DGENRE=Rock
TTITLE0=Carry On
TTITLE1=Teach Your Children
TTITLE2=Almost Cut My Hair
TTITLE3=Helpless
TTITLE4=Woodstock
TTITLE5=Deja Vu
TTITLE6=Our House
TTITLE7=4 and 20
TTITLE8=Country Girl: a. Whiskey Boot Hill - b. Down, Down, Down - c. "Country Girl" (I Think You're Pretty)
TTITLE9=Everybody I Love You
EXTD=Dallas Taylor, Percussion\nGregory Reeves, Bass\nJerry Garcia, Steel Guitar on "Teach Your Children"\nJohn Sebastian, Mouth Harp on "Deja Vu"\nEXTD=n\n YEAR: 1970
EXTT0=
EXTT1=
EXTT2=
EXTT3=
EXTT4=
EXTT5=
EXTT6=
EXTT7=
EXTT8=
EXTT9=
PLAYORDER=
